<?xml version="1.0" encoding="UTF-8" standalone="no"?>
<svg
   width="128"
   height="128"
   viewBox="0 0 128 128"
   stroke-linecap="round"
   stroke-linejoin="round"
   version="1.1"
   id="svg9"
   sodipodi:docname="application-com.github.phase1geo.outliner.svg"
   inkscape:version="1.4.3 (0d15f75042, 2025-12-25)"
   xmlns:inkscape="http://www.inkscape.org/namespaces/inkscape"
   xmlns:sodipodi="http://sodipodi.sourceforge.net/DTD/sodipodi-0.dtd"
   xmlns="http://www.w3.org/2000/svg"
   xmlns:svg="http://www.w3.org/2000/svg">
  <defs
     id="defs9" />
  <sodipodi:namedview
     id="namedview9"
     pagecolor="#ffffff"
     bordercolor="#000000"
     borderopacity="0.25"
     inkscape:showpageshadow="2"
     inkscape:pageopacity="0.0"
     inkscape:pagecheckerboard="0"
     inkscape:deskcolor="#d1d1d1"
     inkscape:zoom="6.8984375"
     inkscape:cx="63.92752"
     inkscape:cy="64"
     inkscape:window-width="1920"
     inkscape:window-height="1138"
     inkscape:window-x="0"
     inkscape:window-y="30"
     inkscape:window-maximized="1"
     inkscape:current-layer="svg9" />
  <!-- Notebook-paper background -->
  <!-- Red margin line -->
  <!-- Horizontal ruling -->
  <!-- Bullets + Squiggles -->
  <!-- Row 1 -->
  <!-- Row 2 (indented bullet) -->
  <!-- First line of squiggles -->
  <!-- Second line of squiggles between rulings -->
  <!-- Row 3 -->
  <rect
     style="display:inline;fill:none;stroke:#313131;stroke-width:0.935414;stroke-opacity:1"
     id="rect1-3"
     width="94.369202"
     height="126.26048"
     x="16.467707"
     y="1.0769936" />
  <g
     id="g9"
     transform="matrix(0.803244,0,0,0.81662032,12.447424,11.88126)">
    <rect
       x="20"
       y="16"
       width="88"
       height="96"
       rx="8"
       fill="#fff8d6"
       stroke="#d4a73b"
       stroke-width="5"
       id="rect1" />
    <line
       x1="36"
       y1="16"
       x2="36"
       y2="112"
       stroke="#d64545"
       stroke-width="3"
       id="line1" />
    <line
       x1="20"
       y1="40"
       x2="108"
       y2="40"
       stroke="#b9d0f7"
       stroke-width="2"
       id="line2" />
    <line
       x1="20"
       y1="56"
       x2="108"
       y2="56"
       stroke="#b9d0f7"
       stroke-width="2"
       id="line3" />
    <line
       x1="20"
       y1="72"
       x2="108"
       y2="72"
       stroke="#b9d0f7"
       stroke-width="2"
       id="line4" />
    <line
       x1="20"
       y1="88"
       x2="108"
       y2="88"
       stroke="#b9d0f7"
       stroke-width="2"
       id="line5" />
    <line
       x1="20"
       y1="104"
       x2="108"
       y2="104"
       stroke="#b9d0f7"
       stroke-width="2"
       id="line6" />
    <circle
       cx="46"
       cy="48"
       r="4.1999998"
       fill="#7a7a7a"
       id="circle6" />
    <path
       d="m 60,48 q 4,-3 8,0 4,3 8,0 4,-3 8,0 4,3 8,0"
       stroke="#000000"
       stroke-width="3"
       fill="none"
       id="path6" />
    <circle
       cx="54"
       cy="64"
       r="4.1999998"
       fill="#7a7a7a"
       id="circle7" />
    <path
       d="m 68,64 q 4,-3 8,0 4,3 8,0 4,-3 8,0 4,3 8,0"
       stroke="#000000"
       stroke-width="3"
       fill="none"
       id="path7" />
    <path
       d="m 68,80 q 4,-3 8,0 4,3 8,0 4,-3 8,0 4,3 8,0"
       stroke="#000000"
       stroke-width="3"
       fill="none"
       id="path8" />
    <circle
       cx="46"
       cy="96"
       r="4.1999998"
       fill="#7a7a7a"
       id="circle8" />
    <path
       d="m 60,96 q 4,-3 8,0 4,3 8,0 4,-3 8,0 4,3 8,0"
       stroke="#000000"
       stroke-width="3"
       fill="none"
       id="path9" />
  </g>
</svg>
